<svg xmlns:xlink="http://www.w3.org/1999/xlink" xmlns="http://www.w3.org/2000/svg" width="24" height="24" class="icon header-link__icon"><defs><symbol viewBox="0 0 26 26" id="new-cart"><path d="M7.8 17.1 3.5 3.3l1.9-.6.8 2.3h16.3v5.6c0 2.5-1.8 4.6-4.2 4.9L7.8 17.1zM6.8 7l2.4 7.9 8.8-1.3c1.5-.2 2.5-1.5 2.5-3V7H6.8zM7.5 24c-1.7 0-3-1.3-3-3s1.3-3 3-3 3 1.3 3 3-1.3 3-3 3zm0-4c-.6 0-1 .4-1 1s.4 1 1 1 1-.4 1-1-.4-1-1-1zM18.5 24c-1.7 0-3-1.3-3-3s1.3-3 3-3 3 1.3 3 3-1.3 3-3 3zm0-4c-.6 0-1 .4-1 1s.4 1 1 1 1-.4 1-1-.4-1-1-1z"></path></symbol></defs><use xlink:href="#new-cart" fill="#404040"></use></svg>